  0
SECTION
  2
HEADER
  9
$ACADVER
  1
AC1009
  0
ENDSEC
  0
SECTION
  2
ENTITIES
  0
CIRCLE
  5
90
  8
Layer_0
  62
0
  10
584.5
  20
15
  30
0
  40
4.9999809
  0
CIRCLE
  5
90
  8
Layer_0
  62
0
  10
284.82101
  20
284.79498
  30
0
  40
5
  0
CIRCLE
  5
90
  8
Layer_0
  62
0
  10
165.125
  20
285.435
  30
0
  40
5
  0
CIRCLE
  5
90
  8
Layer_0
  62
0
  10
165.37801
  20
164.839
  30
0
  40
5
  0
CIRCLE
  5
90
  8
Layer_0
  62
0
  10
285.32599
  20
164.492
  30
0
  40
5
  0
CIRCLE
  5
90
  8
Layer_0
  62
0
  10
434.82101
  20
284.79498
  30
0
  40
5
  0
CIRCLE
  5
90
  8
Layer_0
  62
0
  10
315.125
  20
285.435
  30
0
  40
5
  0
CIRCLE
  5
90
  8
Layer_0
  62
0
  10
315.37799
  20
164.839
  30
0
  40
5
  0
CIRCLE
  5
90
  8
Layer_0
  62
0
  10
435.32599
  20
164.492
  30
0
  40
5
  0
CIRCLE
  5
90
  8
Layer_0
  62
0
  10
584.82098
  20
284.79498
  30
0
  40
5
  0
CIRCLE
  5
90
  8
Layer_0
  62
0
  10
465.125
  20
285.435
  30
0
  40
5
  0
CIRCLE
  5
90
  8
Layer_0
  62
0
  10
465.37799
  20
164.839
  30
0
  40
5
  0
CIRCLE
  5
90
  8
Layer_0
  62
0
  10
585.32599
  20
164.492
  30
0
  40
5
  0
CIRCLE
  5
90
  8
Layer_0
  62
0
  10
434.82101
  20
134.79501
  30
0
  40
5
  0
CIRCLE
  5
90
  8
Layer_0
  62
0
  10
315.125
  20
135.435
  30
0
  40
5
  0
CIRCLE
  5
90
  8
Layer_0
  62
0
  10
315.37799
  20
14.838989
  30
0
  40
5
  0
CIRCLE
  5
90
  8
Layer_0
  62
0
  10
435.32599
  20
14.492004
  30
0
  40
5
  0
CIRCLE
  5
90
  8
Layer_0
  62
0
  10
584.82098
  20
134.79501
  30
0
  40
5
  0
CIRCLE
  5
90
  8
Layer_0
  62
0
  10
465.125
  20
135.435
  30
0
  40
5
  0
CIRCLE
  5
90
  8
Layer_0
  62
0
  10
465.37799
  20
14.838989
  30
0
  40
5
  0
CIRCLE
  5
90
  8
Layer_0
  62
0
  10
584.46002
  20
15
  30
0
  40
4.9999809
  0
CIRCLE
  5
90
  8
Layer_0
  62
0
  10
134.78101
  20
284.79498
  30
0
  40
5
  0
CIRCLE
  5
90
  8
Layer_0
  62
0
  10
15.0848
  20
285.435
  30
0
  40
5
  0
CIRCLE
  5
90
  8
Layer_0
  62
0
  10
15.3374
  20
164.839
  30
0
  40
5
  0
CIRCLE
  5
90
  8
Layer_0
  62
0
  10
135.286
  20
164.492
  30
0
  40
5
  0
CIRCLE
  5
90
  8
Layer_0
  62
0
  10
284.78101
  20
284.79498
  30
0
  40
5
  0
CIRCLE
  5
90
  8
Layer_0
  62
0
  10
165.08501
  20
285.435
  30
0
  40
5
  0
CIRCLE
  5
90
  8
Layer_0
  62
0
  10
165.338
  20
164.839
  30
0
  40
5
  0
CIRCLE
  5
90
  8
Layer_0
  62
0
  10
285.28601
  20
164.492
  30
0
  40
5
  0
CIRCLE
  5
90
  8
Layer_0
  62
0
  10
434.78101
  20
284.79498
  30
0
  40
5
  0
CIRCLE
  5
90
  8
Layer_0
  62
0
  10
315.08499
  20
285.435
  30
0
  40
5
  0
CIRCLE
  5
90
  8
Layer_0
  62
0
  10
315.33801
  20
164.839
  30
0
  40
5
  0
CIRCLE
  5
90
  8
Layer_0
  62
0
  10
435.28601
  20
164.492
  30
0
  40
5
  0
CIRCLE
  5
90
  8
Layer_0
  62
0
  10
584.78101
  20
284.79498
  30
0
  40
5
  0
CIRCLE
  5
90
  8
Layer_0
  62
0
  10
465.08499
  20
285.435
  30
0
  40
5
  0
CIRCLE
  5
90
  8
Layer_0
  62
0
  10
465.33801
  20
164.839
  30
0
  40
5
  0
CIRCLE
  5
90
  8
Layer_0
  62
0
  10
585.28601
  20
164.492
  30
0
  40
5
  0
CIRCLE
  5
90
  8
Layer_0
  62
0
  10
134.78101
  20
134.79501
  30
0
  40
5
  0
CIRCLE
  5
90
  8
Layer_0
  62
0
  10
15.0848
  20
135.435
  30
0
  40
5
  0
CIRCLE
  5
90
  8
Layer_0
  62
0
  10
15.3374
  20
14.838989
  30
0
  40
5
  0
CIRCLE
  5
90
  8
Layer_0
  62
0
  10
135.286
  20
14.492004
  30
0
  40
5
  0
CIRCLE
  5
90
  8
Layer_0
  62
0
  10
284.78101
  20
134.79501
  30
0
  40
5
  0
CIRCLE
  5
90
  8
Layer_0
  62
0
  10
165.08501
  20
135.435
  30
0
  40
5
  0
CIRCLE
  5
90
  8
Layer_0
  62
0
  10
165.338
  20
14.838989
  30
0
  40
5
  0
CIRCLE
  5
90
  8
Layer_0
  62
0
  10
285.28601
  20
14.492004
  30
0
  40
5
  0
CIRCLE
  5
90
  8
Layer_0
  62
0
  10
434.78101
  20
134.79501
  30
0
  40
5
  0
CIRCLE
  5
90
  8
Layer_0
  62
0
  10
315.08499
  20
135.435
  30
0
  40
5
  0
CIRCLE
  5
90
  8
Layer_0
  62
0
  10
315.33801
  20
14.838989
  30
0
  40
5
  0
CIRCLE
  5
90
  8
Layer_0
  62
0
  10
435.28601
  20
14.492004
  30
0
  40
5
  0
CIRCLE
  5
90
  8
Layer_0
  62
0
  10
584.78101
  20
134.79501
  30
0
  40
5
  0
CIRCLE
  5
90
  8
Layer_0
  62
0
  10
465.08499
  20
135.435
  30
0
  40
5
  0
CIRCLE
  5
90
  8
Layer_0
  62
0
  10
465.33801
  20
14.838989
  30
0
  40
5
  0
POLYLINE
  5
90
  8
Layer_0
  62
0
  66
1
  10
0
  20
0
  30
0
  0
VERTEX
  5
90
  8
Layer_0
  10
0.082397461
  20
300
  0
VERTEX
  5
91
  8
Layer_0
  10
600.08197
  20
300
  0
VERTEX
  5
92
  8
Layer_0
  10
600.04181
  20
0
  0
VERTEX
  5
93
  8
Layer_0
  10
0.082397461
  20
0
  0
VERTEX
  5
94
  8
Layer_0
  10
0.042282104
  20
300
  0
SEQEND
  0
POLYLINE
  5
96
  8
Layer_0
  62
0
  66
1
  10
0
  20
0
  30
0
  0
VERTEX
  5
96
  8
Layer_0
  10
150.04228
  20
300
  0
VERTEX
  5
97
  8
Layer_0
  10
150.0824
  20
0
  0
SEQEND
  0
POLYLINE
  5
99
  8
Layer_0
  62
0
  66
1
  10
0
  20
0
  30
0
  0
VERTEX
  5
99
  8
Layer_0
  10
300.04184
  20
300
  0
VERTEX
  5
9a
  8
Layer_0
  10
300.0621
  20
0
  0
SEQEND
  0
POLYLINE
  5
9c
  8
Layer_0
  62
0
  66
1
  10
0
  20
0
  30
0
  0
VERTEX
  5
9c
  8
Layer_0
  10
450.04181
  20
300
  0
VERTEX
  5
9d
  8
Layer_0
  10
450.04181
  20
0
  0
SEQEND
  0
POLYLINE
  5
9f
  8
Layer_0
  62
0
  66
1
  10
0
  20
0
  30
0
  0
VERTEX
  5
9f
  8
Layer_0
  10
0.082397461
  20
150
  0
VERTEX
  5
a0
  8
Layer_0
  10
600.04181
  20
150
  0
SEQEND
  0
POLYLINE
  5
a2
  8
Layer_1
  62
1
  66
1
  10
0
  20
0
  30
0
  0
VERTEX
  5
a2
  8
Layer_1
  10
503.34766
  20
251.07529
  42
-0.025302609
  0
VERTEX
  5
a3
  8
Layer_1
  10
504.78076
  20
250.95834
  42
-0.24020076
  0
VERTEX
  5
a4
  8
Layer_1
  10
514.26733
  20
244.5079
  42
-0.088282648
  0
VERTEX
  5
a5
  8
Layer_1
  10
516.39307
  20
238.51303
  42
-0.050413453
  0
VERTEX
  5
a6
  8
Layer_1
  10
516.84277
  20
231.75522
  42
-0.046361251
  0
VERTEX
  5
a7
  8
Layer_1
  10
515.85815
  20
223.03696
  42
-0.084681701
  0
VERTEX
  5
a8
  8
Layer_1
  10
512.97778
  20
215.86288
  42
-0.20194804
  0
VERTEX
  5
a9
  8
Layer_1
  10
503.19946
  20
209.15268
  42
-0.097165315
  0
VERTEX
  5
aa
  8
Layer_1
  10
493.21045
  20
209.0748
  42
-0.01619146
  0
VERTEX
  5
ab
  8
Layer_1
  10
492.68384
  20
209.2103
  0
VERTEX
  5
ac
  8
Layer_1
  10
492.68384
  20
213.5477
  42
0.080590298
  0
VERTEX
  5
ad
  8
Layer_1
  10
497.771
  20
212.7977
  42
0.064735714
  0
VERTEX
  5
ae
  8
Layer_1
  10
502.27881
  20
213.3165
  42
0.21295588
  0
VERTEX
  5
af
  8
Layer_1
  10
509.37134
  20
218.93027
  42
0.076519163
  0
VERTEX
  5
b0
  8
Layer_1
  10
511.06519
  20
223.82651
  42
0.041186107
  0
VERTEX
  5
b1
  8
Layer_1
  10
511.71362
  20
229.45102
  0
VERTEX
  5
b2
  8
Layer_1
  10
511.36108
  20
229.45102
  0
VERTEX
  5
b3
  8
Layer_1
  10
511.02515
  20
228.96933
  42
-0.13129373
  0
VERTEX
  5
b4
  8
Layer_1
  10
506.40356
  20
225.45078
  42
-0.079321742
  0
VERTEX
  5
b5
  8
Layer_1
  10
502.44849
  20
224.67514
  42
-0.091190818
  0
VERTEX
  5
b6
  8
Layer_1
  10
497.2666
  20
225.27817
  42
-0.25201387
  0
VERTEX
  5
b7
  8
Layer_1
  10
490.30005
  20
232.44467
  42
-0.083197132
  0
VERTEX
  5
b8
  8
Layer_1
  10
489.70044
  20
238.2059
  42
-0.10120004
  0
VERTEX
  5
b9
  8
Layer_1
  10
491.12402
  20
244.20883
  42
-0.11628291
  0
VERTEX
  5
ba
  8
Layer_1
  10
494.5293
  20
248.47836
  42
-0.10690421
  0
VERTEX
  5
bb
  8
Layer_1
  10
499.13208
  20
250.66415
  42
-0.065348302
  0
VERTEX
  5
bc
  8
Layer_1
  10
503.34766
  20
251.07529
  0
SEQEND
  0
POLYLINE
  5
be
  8
Layer_1
  62
1
  66
1
  10
0
  20
0
  30
0
  0
VERTEX
  5
be
  8
Layer_1
  10
570.08057
  20
251.07333
  42
-0.083518916
  0
VERTEX
  5
bf
  8
Layer_1
  10
575.43848
  20
250.08945
  42
-0.11051318
  0
VERTEX
  5
c0
  8
Layer_1
  10
579.49707
  20
247.5062
  42
-0.15746157
  0
VERTEX
  5
c1
  8
Layer_1
  10
581.66577
  20
242.91196
  42
-0.11164385
  0
VERTEX
  5
c2
  8
Layer_1
  10
581.36938
  20
238.33139
  42
-0.1006499
  0
VERTEX
  5
c3
  8
Layer_1
  10
579.46533
  20
235.11533
  42
-0.045550726
  0
VERTEX
  5
c4
  8
Layer_1
  10
577.85254
  20
233.58945
  42
-0.048576226
  0
VERTEX
  5
c5
  8
Layer_1
  10
573.91724
  20
231.06845
  0
VERTEX
  5
c6
  8
Layer_1
  10
574.54712
  20
230.76059
  42
-0.060214344
  0
VERTEX
  5
c7
  8
Layer_1
  10
579.53711
  20
227.52939
  42
-0.10842351
  0
VERTEX
  5
c8
  8
Layer_1
  10
582.41699
  20
223.70737
  42
-0.099810837
  0
VERTEX
  5
c9
  8
Layer_1
  10
583.11597
  20
219.90903
  42
-0.10585506
  0
VERTEX
  5
ca
  8
Layer_1
  10
582.19775
  20
215.24643
  42
-0.14348845
  0
VERTEX
  5
cb
  8
Layer_1
  10
578.48535
  20
210.95663
  42
-0.10405039
  0
VERTEX
  5
cc
  8
Layer_1
  10
573.20288
  20
208.92856
  42
-0.095017896
  0
VERTEX
  5
cd
  8
Layer_1
  10
564.34814
  20
209.19077
  42
-0.098563913
  0
VERTEX
  5
ce
  8
Layer_1
  10
559.80664
  20
211.19736
  42
-0.19679903
  0
VERTEX
  5
cf
  8
Layer_1
  10
555.98804
  20
217.25009
  42
-0.10171891
  0
VERTEX
  5
d0
  8
Layer_1
  10
556.06006
  20
222.37924
  42
-0.11079745
  0
VERTEX
  5
d1
  8
Layer_1
  10
557.94556
  20
226.12924
  42
-0.078797209
  0
VERTEX
  5
d2
  8
Layer_1
  10
561.0979
  20
228.95883
  42
-0.041701489
  0
VERTEX
  5
d3
  8
Layer_1
  10
564.32104
  20
230.77939
  0
VERTEX
  5
d4
  8
Layer_1
  10
563.58301
  20
231.22421
  42
-0.082105158
  0
VERTEX
  5
d5
  8
Layer_1
  10
558.94678
  20
235.28452
  42
-0.14064818
  0
VERTEX
  5
d6
  8
Layer_1
  10
557.1665
  20
239.86655
  42
-0.098796036
  0
VERTEX
  5
d7
  8
Layer_1
  10
557.49658
  20
244.17953
  42
-0.12665516
  0
VERTEX
  5
d8
  8
Layer_1
  10
559.59106
  20
247.62241
  42
-0.099255332
  0
VERTEX
  5
d9
  8
Layer_1
  10
563.10571
  20
249.92661
  42
-0.088152958
  0
VERTEX
  5
da
  8
Layer_1
  10
568.53906
  20
251.06503
  42
-0.017654878
  0
VERTEX
  5
db
  8
Layer_1
  10
570.08057
  20
251.07333
  0
SEQEND
  0
POLYLINE
  5
dd
  8
Layer_1
  62
1
  66
1
  10
0
  20
0
  30
0
  0
VERTEX
  5
dd
  8
Layer_1
  10
474.24121
  20
209.2103
  0
VERTEX
  5
de
  8
Layer_1
  10
469.27148
  20
209.2103
  0
VERTEX
  5
df
  8
Layer_1
  10
469.27148
  20
238.07138
  42
-0.019008117
  0
VERTEX
  5
e0
  8
Layer_1
  10
469.49731
  20
245.18271
  0
VERTEX
  5
e1
  8
Layer_1
  10
469.04712
  20
244.73959
  42
-0.016946309
  0
VERTEX
  5
e2
  8
Layer_1
  10
467.82129
  20
243.62387
  0
VERTEX
  5
e3
  8
Layer_1
  10
465.91016
  20
242.00204
  0
VERTEX
  5
e4
  8
Layer_1
  10
461.51855
  20
238.41464
  0
VERTEX
  5
e5
  8
Layer_1
  10
458.86206
  20
241.83041
  0
VERTEX
  5
e6
  8
Layer_1
  10
470.02148
  20
250.50497
  0
VERTEX
  5
e7
  8
Layer_1
  10
474.24121
  20
250.50497
  0
VERTEX
  5
e8
  8
Layer_1
  10
474.24121
  20
209.2103
  0
SEQEND
  0
POLYLINE
  5
ea
  8
Layer_1
  62
1
  66
1
  10
0
  20
0
  30
0
  0
VERTEX
  5
ea
  8
Layer_1
  10
550.09839
  20
246.57431
  0
VERTEX
  5
eb
  8
Layer_1
  10
533.32764
  20
209.2103
  0
VERTEX
  5
ec
  8
Layer_1
  10
527.71631
  20
209.2103
  0
VERTEX
  5
ed
  8
Layer_1
  10
544.66772
  20
245.87851
  0
VERTEX
  5
ee
  8
Layer_1
  10
522.40308
  20
245.87851
  0
VERTEX
  5
ef
  8
Layer_1
  10
522.40308
  20
250.50497
  0
VERTEX
  5
f0
  8
Layer_1
  10
550.09839
  20
250.50497
  0
VERTEX
  5
f1
  8
Layer_1
  10
550.09839
  20
246.57431
  0
SEQEND
  0
POLYLINE
  5
f3
  8
Layer_1
  62
1
  66
1
  10
0
  20
0
  30
0
  0
VERTEX
  5
f3
  8
Layer_1
  10
567.61597
  20
228.28891
  0
VERTEX
  5
f4
  8
Layer_1
  10
566.7478
  20
227.86118
  42
0.067300109
  0
VERTEX
  5
f5
  8
Layer_1
  10
563.2583
  20
225.49008
  42
0.21116391
  0
VERTEX
  5
f6
  8
Layer_1
  10
560.7417
  20
220.06747
  42
0.17217588
  0
VERTEX
  5
f7
  8
Layer_1
  10
561.93848
  20
215.73837
  42
0.17321501
  0
VERTEX
  5
f8
  8
Layer_1
  10
565.59521
  20
213.17953
  42
0.078702259
  0
VERTEX
  5
f9
  8
Layer_1
  10
569.99121
  20
212.68808
  42
0.09237588
  0
VERTEX
  5
fa
  8
Layer_1
  10
573.96802
  20
213.4603
  42
0.31434144
  0
VERTEX
  5
fb
  8
Layer_1
  10
578.14624
  20
219.85483
  42
0.23149322
  0
VERTEX
  5
fc
  8
Layer_1
  10
575.77417
  20
224.85165
  42
0.066774852
  0
VERTEX
  5
fd
  8
Layer_1
  10
571.3396
  20
227.5726
  42
0.022295488
  0
VERTEX
  5
fe
  8
Layer_1
  10
568.54102
  20
228.70102
  0
VERTEX
  5
ff
  8
Layer_1
  10
567.61597
  20
228.28891
  0
SEQEND
  0
POLYLINE
  5
101
  8
Layer_1
  62
1
  66
1
  10
0
  20
0
  30
0
  0
VERTEX
  5
101
  8
Layer_1
  10
502.41504
  20
246.79086
  42
0.1713173
  0
VERTEX
  5
102
  8
Layer_1
  10
497.58008
  20
244.98398
  42
0.14709206
  0
VERTEX
  5
103
  8
Layer_1
  10
495.27832
  20
241.43613
  42
0.081280995
  0
VERTEX
  5
104
  8
Layer_1
  10
494.71533
  20
236.71127
  42
0.10303391
  0
VERTEX
  5
105
  8
Layer_1
  10
495.62402
  20
232.52158
  42
0.1676679
  0
VERTEX
  5
106
  8
Layer_1
  10
498.39648
  20
229.53793
  42
0.10198791
  0
VERTEX
  5
107
  8
Layer_1
  10
501.65332
  20
228.68246
  42
0.091749563
  0
VERTEX
  5
108
  8
Layer_1
  10
505.80688
  20
229.08627
  42
0.17177114
  0
VERTEX
  5
109
  8
Layer_1
  10
510.58398
  20
232.63168
  42
0.17119294
  0
VERTEX
  5
10a
  8
Layer_1
  10
511.69824
  20
236.8392
  42
0.12465187
  0
VERTEX
  5
10b
  8
Layer_1
  10
509.85205
  20
242.84311
  42
0.12107505
  0
VERTEX
  5
10c
  8
Layer_1
  10
506.73389
  20
245.89023
  42
0.10808273
  0
VERTEX
  5
10d
  8
Layer_1
  10
503.58154
  20
246.77475
  42
0.028017559
  0
VERTEX
  5
10e
  8
Layer_1
  10
502.41504
  20
246.79086
  0
SEQEND
  0
POLYLINE
  5
110
  8
Layer_1
  62
1
  70
1
  66
1
  10
0
  20
0
  30
0
  0
VERTEX
  5
110
  8
Layer_1
  10
568.57666
  20
246.94785
  0
VERTEX
  5
111
  8
Layer_1
  10
567.83423
  20
246.87607
  42
0.10601835
  0
VERTEX
  5
112
  8
Layer_1
  10
564.64941
  20
245.79916
  42
0.11972305
  0
VERTEX
  5
113
  8
Layer_1
  10
562.86499
  20
244.10019
  42
0.14294075
  0
VERTEX
  5
114
  8
Layer_1
  10
562.06201
  20
241.01694
  42
0.11053082
  0
VERTEX
  5
115
  8
Layer_1
  10
562.63135
  20
238.19614
  42
0.12313061
  0
VERTEX
  5
116
  8
Layer_1
  10
564.99878
  20
235.50522
  42
0.038792546
  0
VERTEX
  5
117
  8
Layer_1
  10
568.62158
  20
233.50473
  0
VERTEX
  5
118
  8
Layer_1
  10
569.64331
  20
233.03818
  42
0.079619081
  0
VERTEX
  5
119
  8
Layer_1
  10
574.70337
  20
236.10605
  42
0.18697141
  0
VERTEX
  5
11a
  8
Layer_1
  10
576.68262
  20
239.89462
  42
0.12318058
  0
VERTEX
  5
11b
  8
Layer_1
  10
576.36719
  20
243.28696
  42
0.18277405
  0
VERTEX
  5
11c
  8
Layer_1
  10
573.9248
  20
245.96078
  42
0.11030367
  0
VERTEX
  5
11d
  8
Layer_1
  10
570.17139
  20
246.94785
  42
0.030017711
  0
SEQEND
  0
POLYLINE
  5
11f
  8
Layer_1
  62
1
  66
1
  10
0
  20
0
  30
0
  0
VERTEX
  5
11f
  8
Layer_1
  10
436.66193
  20
207.45461
  42
-0.095755544
  0
VERTEX
  5
120
  8
Layer_1
  10
440.67053
  20
204.30144
  0
VERTEX
  5
121
  8
Layer_1
  10
438.76581
  20
202.57393
  0
VERTEX
  5
122
  8
Layer_1
  10
438.33456
  20
203.02318
  42
0.056129536
  0
VERTEX
  5
123
  8
Layer_1
  10
435.87903
  20
205.06728
  42
0.081046036
  0
VERTEX
  5
124
  8
Layer_1
  10
433.2088
  20
206.21996
  42
0.14023381
  0
VERTEX
  5
125
  8
Layer_1
  10
431.43707
  20
206.1897
  42
0.2556068
  0
VERTEX
  5
126
  8
Layer_1
  10
430.28696
  20
204.91235
  42
0.2108134
  0
VERTEX
  5
127
  8
Layer_1
  10
430.60135
  20
203.20416
  42
0.047039763
  0
VERTEX
  5
128
  8
Layer_1
  10
432.06757
  20
201.39433
  42
0.0030633986
  0
VERTEX
  5
129
  8
Layer_1
  10
434.1217
  20
199.22653
  0
VERTEX
  5
12a
  8
Layer_1
  10
434.39487
  20
198.92053
  42
-0.059431566
  0
VERTEX
  5
12b
  8
Layer_1
  10
435.86661
  20
196.91162
  42
-0.23238288
  0
VERTEX
  5
12c
  8
Layer_1
  10
436.06229
  20
193.35786
  42
-0.14572004
  0
VERTEX
  5
12d
  8
Layer_1
  10
434.29605
  20
190.965
  42
-0.11229831
  0
VERTEX
  5
12e
  8
Layer_1
  10
432.48373
  20
190.22487
  42
-0.10578579
  0
VERTEX
  5
12f
  8
Layer_1
  10
429.2944
  20
190.40825
  42
-0.10372628
  0
VERTEX
  5
130
  8
Layer_1
  10
423.76138
  20
193.24908
  42
-0.051922298
  0
VERTEX
  5
131
  8
Layer_1
  10
422.4538
  20
194.59537
  0
VERTEX
  5
132
  8
Layer_1
  10
423.578
  20
197.05147
  42
0.071652025
  0
VERTEX
  5
133
  8
Layer_1
  10
426.80664
  20
194.09772
  42
0.085205421
  0
VERTEX
  5
134
  8
Layer_1
  10
430.04044
  20
192.69217
  42
0.13466531
  0
VERTEX
  5
135
  8
Layer_1
  10
431.76776
  20
192.71053
  42
0.39692635
  0
VERTEX
  5
136
  8
Layer_1
  10
433.33325
  20
195.40686
  42
0.096368185
  0
VERTEX
  5
137
  8
Layer_1
  10
432.43295
  20
197.01056
  42
0.028515983
  0
VERTEX
  5
138
  8
Layer_1
  10
430.28894
  20
199.36395
  0
VERTEX
  5
139
  8
Layer_1
  10
429.98166
  20
199.69041
  42
-0.042962639
  0
VERTEX
  5
13a
  8
Layer_1
  10
428.05038
  20
202.078
  42
-0.13297417
  0
VERTEX
  5
13b
  8
Layer_1
  10
427.30389
  20
204.36792
  42
-0.21756598
  0
VERTEX
  5
13c
  8
Layer_1
  10
429.03293
  20
207.9313
  42
-0.12618041
  0
VERTEX
  5
13d
  8
Layer_1
  10
430.94089
  20
208.72028
  42
-0.10215267
  0
VERTEX
  5
13e
  8
Layer_1
  10
433.93298
  20
208.53241
  42
-0.056773407
  0
VERTEX
  5
13f
  8
Layer_1
  10
436.66193
  20
207.45461
  0
SEQEND
  0
POLYLINE
  5
141
  8
Layer_1
  62
1
  66
1
  10
0
  20
0
  30
0
  0
VERTEX
  5
141
  8
Layer_1
  10
407.68094
  20
220.7244
  42
-0.12481539
  0
VERTEX
  5
142
  8
Layer_1
  10
410.38385
  20
218.39067
  42
-0.16377816
  0
VERTEX
  5
143
  8
Layer_1
  10
411.52213
  20
214.21375
  42
-0.096672131
  0
VERTEX
  5
144
  8
Layer_1
  10
410.54861
  20
210.44202
  0
VERTEX
  5
145
  8
Layer_1
  10
409.80197
  20
208.81084
  0
VERTEX
  5
146
  8
Layer_1
  10
398.53394
  20
213.96846
  42
0.099672978
  0
VERTEX
  5
147
  8
Layer_1
  10
397.7626
  20
210.73059
  42
0.26203617
  0
VERTEX
  5
148
  8
Layer_1
  10
400.05542
  20
206.47792
  42
0.11646117
  0
VERTEX
  5
149
  8
Layer_1
  10
405.48166
  20
204.67029
  42
0.019828785
  0
VERTEX
  5
14a
  8
Layer_1
  10
406.97562
  20
204.57529
  0
VERTEX
  5
14b
  8
Layer_1
  10
405.89316
  20
202.21042
  42
-0.11131347
  0
VERTEX
  5
14c
  8
Layer_1
  10
399.99512
  20
203.61028
  42
-0.10674836
  0
VERTEX
  5
14d
  8
Layer_1
  10
396.65842
  20
206.01932
  42
-0.19160086
  0
VERTEX
  5
14e
  8
Layer_1
  10
394.79684
  20
211.1631
  42
-0.091612633
  0
VERTEX
  5
14f
  8
Layer_1
  10
395.63516
  20
214.97202
  42
-0.07288112
  0
VERTEX
  5
150
  8
Layer_1
  10
397.68869
  20
218.56329
  42
-0.1330337
  0
VERTEX
  5
151
  8
Layer_1
  10
401.32159
  20
221.28825
  42
-0.18814055
  0
VERTEX
  5
152
  8
Layer_1
  10
406.62201
  20
221.20667
  42
-0.029142852
  0
VERTEX
  5
153
  8
Layer_1
  10
407.68094
  20
220.7244
  0
SEQEND
  0
POLYLINE
  5
155
  8
Layer_1
  62
1
  66
1
  10
0
  20
0
  30
0
  0
VERTEX
  5
155
  8
Layer_1
  10
387.92236
  20
209.50758
  0
VERTEX
  5
156
  8
Layer_1
  10
385.74463
  20
210.50438
  0
VERTEX
  5
157
  8
Layer_1
  10
386.35861
  20
212.89813
  0
VERTEX
  5
158
  8
Layer_1
  10
386.23386
  20
212.95525
  0
VERTEX
  5
159
  8
Layer_1
  10
385.92416
  20
212.78661
  42
-0.12321815
  0
VERTEX
  5
15a
  8
Layer_1
  10
382.64587
  20
212.05243
  42
-0.11151639
  0
VERTEX
  5
15b
  8
Layer_1
  10
379.22012
  20
213.15999
  42
-0.29457517
  0
VERTEX
  5
15c
  8
Layer_1
  10
375.76364
  20
219.57724
  42
-0.08567385
  0
VERTEX
  5
15d
  8
Layer_1
  10
376.86053
  20
223.85608
  42
-0.077216703
  0
VERTEX
  5
15e
  8
Layer_1
  10
379.25797
  20
227.88655
  42
-0.13755288
  0
VERTEX
  5
15f
  8
Layer_1
  10
382.59409
  20
230.21895
  42
-0.18452715
  0
VERTEX
  5
160
  8
Layer_1
  10
387.41769
  20
230.00658
  42
-0.10152938
  0
VERTEX
  5
161
  8
Layer_1
  10
390.08264
  20
228.31557
  42
-0.13065593
  0
VERTEX
  5
162
  8
Layer_1
  10
391.78464
  20
225.08217
  0
VERTEX
  5
163
  8
Layer_1
  10
391.96689
  20
224.99873
  42
0.0048828343
  0
VERTEX
  5
164
  8
Layer_1
  10
392.5394
  20
226.61673
  0
VERTEX
  5
165
  8
Layer_1
  10
392.66711
  20
226.95914
  42
-0.015020304
  0
VERTEX
  5
166
  8
Layer_1
  10
392.89563
  20
227.50941
  0
VERTEX
  5
167
  8
Layer_1
  10
395.90155
  20
234.07657
  0
VERTEX
  5
168
  8
Layer_1
  10
398.60229
  20
232.84038
  0
VERTEX
  5
169
  8
Layer_1
  10
387.92236
  20
209.50758
  0
SEQEND
  0
POLYLINE
  5
16b
  8
Layer_1
  62
1
  66
1
  10
0
  20
0
  30
0
  0
VERTEX
  5
16b
  8
Layer_1
  10
371.29733
  20
237.34871
  0
VERTEX
  5
16c
  8
Layer_1
  10
371.64828
  20
237.16928
  42
-0.10865597
  0
VERTEX
  5
16d
  8
Layer_1
  10
374.22458
  20
235.11742
  42
-0.21167435
  0
VERTEX
  5
16e
  8
Layer_1
  10
375.03851
  20
231.65147
  42
-0.068647953
  0
VERTEX
  5
16f
  8
Layer_1
  10
374.29532
  20
229.2986
  0
VERTEX
  5
170
  8
Layer_1
  10
369.16614
  20
218.09271
  0
VERTEX
  5
171
  8
Layer_1
  10
367.20395
  20
218.99084
  0
VERTEX
  5
172
  8
Layer_1
  10
367.74826
  20
221.56149
  0
VERTEX
  5
173
  8
Layer_1
  10
367.6235
  20
221.61859
  0
VERTEX
  5
174
  8
Layer_1
  10
367.20419
  20
221.41637
  42
-0.10832843
  0
VERTEX
  5
175
  8
Layer_1
  10
364.07541
  20
220.6492
  42
-0.091546764
  0
VERTEX
  5
176
  8
Layer_1
  10
361.40201
  20
221.28754
  42
-0.090752987
  0
VERTEX
  5
177
  8
Layer_1
  10
358.97623
  20
222.74316
  42
-0.12197559
  0
VERTEX
  5
178
  8
Layer_1
  10
357.51492
  20
224.86757
  42
-0.1635082
  0
VERTEX
  5
179
  8
Layer_1
  10
357.57571
  20
227.84775
  42
-0.11617127
  0
VERTEX
  5
17a
  8
Layer_1
  10
358.978
  20
230.32883
  42
-0.17470536
  0
VERTEX
  5
17b
  8
Layer_1
  10
361.93018
  20
231.72269
  42
-0.091357657
  0
VERTEX
  5
17c
  8
Layer_1
  10
365.38666
  20
231.38965
  42
-0.036375248
  0
VERTEX
  5
17d
  8
Layer_1
  10
368.228
  20
230.40488
  0
VERTEX
  5
17e
  8
Layer_1
  10
371.06628
  20
229.21581
  42
0.01412964
  0
VERTEX
  5
17f
  8
Layer_1
  10
371.72891
  20
230.70044
  42
0.087635953
  0
VERTEX
  5
180
  8
Layer_1
  10
372.12106
  20
232.43884
  42
0.20083697
  0
VERTEX
  5
181
  8
Layer_1
  10
371.38516
  20
234.30318
  42
0.099431228
  0
VERTEX
  5
182
  8
Layer_1
  10
369.77887
  20
235.41566
  42
0.095095037
  0
VERTEX
  5
183
  8
Layer_1
  10
366.48273
  20
236.21983
  42
0.026294774
  0
VERTEX
  5
184
  8
Layer_1
  10
364.56735
  20
236.27519
  0
VERTEX
  5
185
  8
Layer_1
  10
364.66635
  20
238.68423
  42
-0.12017803
  0
VERTEX
  5
186
  8
Layer_1
  10
370.92914
  20
237.52341
  0
VERTEX
  5
187
  8
Layer_1
  10
371.29733
  20
237.34871
  0
SEQEND
  0
POLYLINE
  5
189
  8
Layer_1
  62
1
  66
1
  10
0
  20
0
  30
0
  0
VERTEX
  5
189
  8
Layer_1
  10
426.27271
  20
212.2175
  42
-0.04460348
  0
VERTEX
  5
18a
  8
Layer_1
  10
427.6459
  20
211.37711
  0
VERTEX
  5
18b
  8
Layer_1
  10
426.17294
  20
209.04599
  0
VERTEX
  5
18c
  8
Layer_1
  10
425.79333
  20
209.32124
  42
0.081302547
  0
VERTEX
  5
18d
  8
Layer_1
  10
423.85114
  20
210.31761
  42
0.24175218
  0
VERTEX
  5
18e
  8
Layer_1
  10
419.15704
  20
209.34167
  42
0.12342132
  0
VERTEX
  5
18f
  8
Layer_1
  10
417.17029
  20
206.74391
  0
VERTEX
  5
190
  8
Layer_1
  10
413.14987
  20
197.9604
  0
VERTEX
  5
191
  8
Layer_1
  10
410.44913
  20
199.19659
  0
VERTEX
  5
192
  8
Layer_1
  10
417.9826
  20
215.65523
  0
VERTEX
  5
193
  8
Layer_1
  10
420.19406
  20
214.64297
  0
VERTEX
  5
194
  8
Layer_1
  10
419.12225
  20
211.49004
  0
VERTEX
  5
195
  8
Layer_1
  10
419.24213
  20
211.43517
  0
VERTEX
  5
196
  8
Layer_1
  10
419.60178
  20
211.67249
  42
-0.11509929
  0
VERTEX
  5
197
  8
Layer_1
  10
423.22699
  20
212.95697
  42
-0.12539962
  0
VERTEX
  5
198
  8
Layer_1
  10
425.79846
  20
212.44907
  0
VERTEX
  5
199
  8
Layer_1
  10
426.27271
  20
212.2175
  0
SEQEND
  0
POLYLINE
  5
19b
  8
Layer_1
  62
1
  66
1
  10
0
  20
0
  30
0
  0
VERTEX
  5
19b
  8
Layer_1
  10
327.90869
  20
261.56049
  0
VERTEX
  5
19c
  8
Layer_1
  10
325.05164
  20
262.12555
  0
VERTEX
  5
19d
  8
Layer_1
  10
317.02637
  20
244.59247
  0
VERTEX
  5
19e
  8
Layer_1
  10
319.33667
  20
242.83289
  0
VERTEX
  5
19f
  8
Layer_1
  10
318.60547
  20
241.23544
  0
VERTEX
  5
1a0
  8
Layer_1
  10
310.68549
  20
244.86058
  0
VERTEX
  5
1a1
  8
Layer_1
  10
311.41669
  20
246.45802
  0
VERTEX
  5
1a2
  8
Layer_1
  10
314.26324
  20
245.85721
  0
VERTEX
  5
1a3
  8
Layer_1
  10
322.28851
  20
263.39029
  0
VERTEX
  5
1a4
  8
Layer_1
  10
319.98871
  20
265.18562
  0
VERTEX
  5
1a5
  8
Layer_1
  10
320.71991
  20
266.78308
  0
VERTEX
  5
1a6
  8
Layer_1
  10
328.63986
  20
263.15793
  0
VERTEX
  5
1a7
  8
Layer_1
  10
327.90869
  20
261.56049
  0
SEQEND
  0
POLYLINE
  5
1a9
  8
Layer_1
  62
1
  66
1
  10
0
  20
0
  30
0
  0
VERTEX
  5
1a9
  8
Layer_1
  10
348.27631
  20
235.40337
  0
VERTEX
  5
1aa
  8
Layer_1
  10
348.23706
  20
234.97803
  42
-0.031301662
  0
VERTEX
  5
1ab
  8
Layer_1
  10
347.70728
  20
231.14389
  0
VERTEX
  5
1ac
  8
Layer_1
  10
347.63425
  20
230.84357
  0
VERTEX
  5
1ad
  8
Layer_1
  10
347.75879
  20
230.78656
  0
VERTEX
  5
1ae
  8
Layer_1
  10
347.95453
  20
231.03178
  42
-0.022635819
  0
VERTEX
  5
1af
  8
Layer_1
  10
350.58636
  20
233.93251
  0
VERTEX
  5
1b0
  8
Layer_1
  10
351.13638
  20
234.51471
  0
VERTEX
  5
1b1
  8
Layer_1
  10
359.07996
  20
242.61624
  0
VERTEX
  5
1b2
  8
Layer_1
  10
361.96295
  20
241.29663
  0
VERTEX
  5
1b3
  8
Layer_1
  10
348.16956
  20
227.70331
  0
VERTEX
  5
1b4
  8
Layer_1
  10
345.06592
  20
229.12392
  0
VERTEX
  5
1b5
  8
Layer_1
  10
346.36786
  20
248.43484
  0
VERTEX
  5
1b6
  8
Layer_1
  10
349.25574
  20
247.11301
  0
VERTEX
  5
1b7
  8
Layer_1
  10
348.27631
  20
235.40337
  0
SEQEND
  0
POLYLINE
  5
1b9
  8
Layer_1
  62
1
  66
1
  10
0
  20
0
  30
0
  0
VERTEX
  5
1b9
  8
Layer_1
  10
338.42627
  20
252.43451
  0
VERTEX
  5
1ba
  8
Layer_1
  10
338.77042
  20
252.25659
  42
-0.11468578
  0
VERTEX
  5
1bb
  8
Layer_1
  10
341.30939
  20
250.14905
  42
-0.19507777
  0
VERTEX
  5
1bc
  8
Layer_1
  10
342.13748
  20
246.75208
  42
-0.078110073
  0
VERTEX
  5
1bd
  8
Layer_1
  10
341.25488
  20
243.83015
  0
VERTEX
  5
1be
  8
Layer_1
  10
336.34964
  20
233.11354
  0
VERTEX
  5
1bf
  8
Layer_1
  10
333.67776
  20
234.33652
  0
VERTEX
  5
1c0
  8
Layer_1
  10
338.49734
  20
244.866
  42
0.1012779
  0
VERTEX
  5
1c1
  8
Layer_1
  10
339.09393
  20
247.1203
  42
0.24881049
  0
VERTEX
  5
1c2
  8
Layer_1
  10
337.81512
  20
249.80235
  42
0.14121215
  0
VERTEX
  5
1c3
  8
Layer_1
  10
334.13965
  20
251.18909
  42
0.18713656
  0
VERTEX
  5
1c4
  8
Layer_1
  10
331.71658
  20
250.41573
  42
0.095364338
  0
VERTEX
  5
1c5
  8
Layer_1
  10
329.76602
  20
248.09299
  42
0.025466255
  0
VERTEX
  5
1c6
  8
Layer_1
  10
329.07883
  20
246.7635
  0
VERTEX
  5
1c7
  8
Layer_1
  10
325.17264
  20
238.22951
  0
VERTEX
  5
1c8
  8
Layer_1
  10
322.47189
  20
239.4657
  0
VERTEX
  5
1c9
  8
Layer_1
  10
330.00537
  20
255.92432
  0
VERTEX
  5
1ca
  8
Layer_1
  10
332.18311
  20
254.92752
  0
VERTEX
  5
1cb
  8
Layer_1
  10
331.55865
  20
252.49802
  0
VERTEX
  5
1cc
  8
Layer_1
  10
331.71204
  20
252.4278
  0
VERTEX
  5
1cd
  8
Layer_1
  10
332.06369
  20
252.64462
  42
-0.15063651
  0
VERTEX
  5
1ce
  8
Layer_1
  10
335.22369
  20
253.32285
  42
-0.10379811
  0
VERTEX
  5
1cf
  8
Layer_1
  10
338.42627
  20
252.43451
  0
SEQEND
  0
POLYLINE
  5
1d1
  8
Layer_1
  62
1
  66
1
  10
0
  20
0
  30
0
  0
VERTEX
  5
1d1
  8
Layer_1
  10
367.71216
  20
228.37805
  0
VERTEX
  5
1d2
  8
Layer_1
  10
367.32721
  20
228.53197
  42
0.0685348
  0
VERTEX
  5
1d3
  8
Layer_1
  10
364.14569
  20
229.38356
  42
0.20049629
  0
VERTEX
  5
1d4
  8
Layer_1
  10
361.64825
  20
228.71109
  42
0.19640818
  0
VERTEX
  5
1d5
  8
Layer_1
  10
360.37881
  20
226.16116
  42
0.18822573
  0
VERTEX
  5
1d6
  8
Layer_1
  10
360.95514
  20
224.55298
  42
0.11747674
  0
VERTEX
  5
1d7
  8
Layer_1
  10
362.50079
  20
223.40651
  42
0.12850594
  0
VERTEX
  5
1d8
  8
Layer_1
  10
365.53055
  20
222.80293
  42
0.11523943
  0
VERTEX
  5
1d9
  8
Layer_1
  10
367.39951
  20
223.34717
  42
0.13648545
  0
VERTEX
  5
1da
  8
Layer_1
  10
369.21506
  20
225.31741
  42
0.019295146
  0
VERTEX
  5
1db
  8
Layer_1
  10
370.17627
  20
227.36053
  0
VERTEX
  5
1dc
  8
Layer_1
  10
367.71216
  20
228.37805
  0
SEQEND
  0
POLYLINE
  5
1de
  8
Layer_1
  62
1
  66
1
  10
0
  20
0
  30
0
  0
VERTEX
  5
1de
  8
Layer_1
  10
386.867
  20
227.54518
  0
VERTEX
  5
1df
  8
Layer_1
  10
386.59824
  20
227.64377
  42
0.24131632
  0
VERTEX
  5
1e0
  8
Layer_1
  10
383.07526
  20
227.19154
  42
0.098638445
  0
VERTEX
  5
1e1
  8
Layer_1
  10
380.93378
  20
224.99136
  42
0.092317986
  0
VERTEX
  5
1e2
  8
Layer_1
  10
378.93057
  20
220.2993
  42
0.089399181
  0
VERTEX
  5
1e3
  8
Layer_1
  10
378.85297
  20
217.96692
  42
0.23479715
  0
VERTEX
  5
1e4
  8
Layer_1
  10
380.88647
  20
215.09705
  42
0.10854111
  0
VERTEX
  5
1e5
  8
Layer_1
  10
383.79532
  20
214.16647
  42
0.18040788
  0
VERTEX
  5
1e6
  8
Layer_1
  10
386.1525
  20
214.84111
  42
0.088369741
  0
VERTEX
  5
1e7
  8
Layer_1
  10
387.71759
  20
216.51357
  42
0.079032303
  0
VERTEX
  5
1e8
  8
Layer_1
  10
389.97833
  20
221.72839
  42
0.085262649
  0
VERTEX
  5
1e9
  8
Layer_1
  10
390.13373
  20
224.07404
  42
0.19027318
  0
VERTEX
  5
1ea
  8
Layer_1
  10
388.84131
  20
226.37085
  42
0.07876519
  0
VERTEX
  5
1eb
  8
Layer_1
  10
386.867
  20
227.54518
  0
SEQEND
  0
POLYLINE
  5
1ed
  8
Layer_1
  62
1
  70
1
  66
1
  10
0
  20
0
  30
0
  0
VERTEX
  5
1ed
  8
Layer_1
  10
405.64532
  20
218.97545
  0
VERTEX
  5
1ee
  8
Layer_1
  10
405.17239
  20
219.12129
  42
0.22610276
  0
VERTEX
  5
1ef
  8
Layer_1
  10
401.68185
  20
218.48184
  42
0.0955194
  0
VERTEX
  5
1f0
  8
Layer_1
  10
399.89575
  20
216.59935
  0
VERTEX
  5
1f1
  8
Layer_1
  10
399.58224
  20
216.09389
  0
VERTEX
  5
1f2
  8
Layer_1
  10
407.96729
  20
212.25587
  42
0.10870239
  0
VERTEX
  5
1f3
  8
Layer_1
  10
408.63171
  20
215.20569
  42
0.11248574
  0
VERTEX
  5
1f4
  8
Layer_1
  10
408.25027
  20
216.91879
  42
0.12482239
  0
VERTEX
  5
1f5
  8
Layer_1
  10
407.04626
  20
218.25902
  42
0.06334989
  0
SEQEND
  0
POLYLINE
  5
1f7
  8
Layer_1
  62
1
  66
1
  10
0
  20
0
  30
0
  0
VERTEX
  5
1f7
  8
Layer_1
  10
200.4431
  20
239.35493
  0
VERTEX
  5
1f8
  8
Layer_1
  10
201.01439
  20
239.31612
  42
-0.2767186
  0
VERTEX
  5
1f9
  8
Layer_1
  10
209.0222
  20
233.66817
  42
-0.075594768
  0
VERTEX
  5
1fa
  8
Layer_1
  10
210.2097
  20
229.22041
  42
-0.075962014
  0
VERTEX
  5
1fb
  8
Layer_1
  10
209.98363
  20
221.62813
  42
-0.084084731
  0
VERTEX
  5
1fc
  8
Layer_1
  10
208.47948
  20
217.5295
  42
-0.18704049
  0
VERTEX
  5
1fd
  8
Layer_1
  10
203.13744
  20
213.22163
  42
-0.088352356
  0
VERTEX
  5
1fe
  8
Layer_1
  10
199.08617
  20
212.76094
  42
-0.080287304
  0
VERTEX
  5
1ff
  8
Layer_1
  10
195.93651
  20
213.37666
  42
-0.13131704
  0
VERTEX
  5
200
  8
Layer_1
  10
191.86058
  20
216.47627
  0
VERTEX
  5
201
  8
Layer_1
  10
191.57616
  20
216.47627
  0
VERTEX
  5
202
  8
Layer_1
  10
191.62474
  20
216.04195
  42
-0.023865872
  0
VERTEX
  5
203
  8
Layer_1
  10
191.86058
  20
212.2646
  0
VERTEX
  5
204
  8
Layer_1
  10
191.86058
  20
201.7314
  0
VERTEX
  5
205
  8
Layer_1
  10
187.64867
  20
201.7314
  0
VERTEX
  5
206
  8
Layer_1
  10
187.64867
  20
238.88911
  0
VERTEX
  5
207
  8
Layer_1
  10
191.0974
  20
238.88911
  0
VERTEX
  5
208
  8
Layer_1
  10
191.67357
  20
235.38814
  0
VERTEX
  5
209
  8
Layer_1
  10
191.86058
  20
235.38814
  0
VERTEX
  5
20a
  8
Layer_1
  10
192.15965
  20
235.79878
  42
-0.12617991
  0
VERTEX
  5
20b
  8
Layer_1
  10
195.89012
  20
238.71992
  42
-0.080869753
  0
VERTEX
  5
20c
  8
Layer_1
  10
199.09911
  20
239.34981
  42
-0.022958851
  0
VERTEX
  5
20d
  8
Layer_1
  10
200.4431
  20
239.35493
  0
SEQEND
  0
POLYLINE
  5
20f
  8
Layer_1
  62
1
  66
1
  10
0
  20
0
  30
0
  0
VERTEX
  5
20f
  8
Layer_1
  10
171.78539
  20
247.88033
  0
VERTEX
  5
210
  8
Layer_1
  10
172.46971
  20
247.85567
  42
-0.092566654
  0
VERTEX
  5
211
  8
Layer_1
  10
180.51952
  20
245.97359
  0
VERTEX
  5
212
  8
Layer_1
  10
179.1804
  20
242.28535
  0
VERTEX
  5
213
  8
Layer_1
  10
178.2744
  20
242.6523
  42
0.051511974
  0
VERTEX
  5
214
  8
Layer_1
  10
173.73875
  20
243.89717
  42
0.073640604
  0
VERTEX
  5
215
  8
Layer_1
  10
169.14452
  20
243.96992
  42
0.12112366
  0
VERTEX
  5
216
  8
Layer_1
  10
166.3662
  20
242.90327
  42
0.21924146
  0
VERTEX
  5
217
  8
Layer_1
  10
164.55077
  20
239.67574
  42
0.11865528
  0
VERTEX
  5
218
  8
Layer_1
  10
164.92918
  20
236.8625
  42
0.13198
  0
VERTEX
  5
219
  8
Layer_1
  10
166.49779
  20
234.91011
  42
0.054567225
  0
VERTEX
  5
21a
  8
Layer_1
  10
168.97655
  20
233.49263
  42
0.020619928
  0
VERTEX
  5
21b
  8
Layer_1
  10
172.73778
  20
231.95357
  0
VERTEX
  5
21c
  8
Layer_1
  10
173.44798
  20
231.67085
  42
-0.049174735
  0
VERTEX
  5
21d
  8
Layer_1
  10
177.60204
  20
229.53853
  42
-0.10873598
  0
VERTEX
  5
21e
  8
Layer_1
  10
180.25755
  20
226.82246
  42
-0.1102287
  0
VERTEX
  5
21f
  8
Layer_1
  10
181.26756
  20
223.64961
  42
-0.10433756
  0
VERTEX
  5
220
  8
Layer_1
  10
180.87035
  20
219.23555
  42
-0.16829921
  0
VERTEX
  5
221
  8
Layer_1
  10
177.61034
  20
214.97237
  42
-0.10189255
  0
VERTEX
  5
222
  8
Layer_1
  10
173.00487
  20
213.10005
  42
-0.060277199
  0
VERTEX
  5
223
  8
Layer_1
  10
167.71654
  20
212.77022
  42
-0.060437485
  0
VERTEX
  5
224
  8
Layer_1
  10
161.57127
  20
213.68867
  42
-0.038485179
  0
VERTEX
  5
225
  8
Layer_1
  10
159.73753
  20
214.37422
  0
VERTEX
  5
226
  8
Layer_1
  10
159.73753
  20
218.48872
  42
0.082446868
  0
VERTEX
  5
227
  8
Layer_1
  10
167.96165
  20
216.51534
  42
0.058354372
  0
VERTEX
  5
228
  8
Layer_1
  10
171.92406
  20
216.68526
  42
0.10572011
  0
VERTEX
  5
229
  8
Layer_1
  10
174.83885
  20
217.78145
  42
0.26116618
  0
VERTEX
  5
22a
  8
Layer_1
  10
177.02586
  20
221.98238
  42
0.14153368
  0
VERTEX
  5
22b
  8
Layer_1
  10
176.30785
  20
224.81001
  42
0.10259271
  0
VERTEX
  5
22c
  8
Layer_1
  10
174.65184
  20
226.44136
  42
0.050496878
  0
VERTEX
  5
22d
  8
Layer_1
  10
171.12596
  20
228.21382
  42
0.0085484919
  0
VERTEX
  5
22e
  8
Layer_1
  10
168.44701
  20
229.22188
  0
VERTEX
  5
22f
  8
Layer_1
  10
167.92699
  20
229.42769
  42
-0.075656244
  0
VERTEX
  5
230
  8
Layer_1
  10
163.30663
  20
232.06343
  42
-0.19674387
  0
VERTEX
  5
231
  8
Layer_1
  10
160.31053
  20
237.2917
  42
-0.087617903
  0
VERTEX
  5
232
  8
Layer_1
  10
160.36668
  20
241.10982
  42
-0.16259488
  0
VERTEX
  5
233
  8
Layer_1
  10
162.75145
  20
245.17036
  42
-0.10954323
  0
VERTEX
  5
234
  8
Layer_1
  10
166.6909
  20
247.29536
  42
-0.079655603
  0
VERTEX
  5
235
  8
Layer_1
  10
171.78539
  20
247.88033
  0
SEQEND
  0
POLYLINE
  5
237
  8
Layer_1
  62
1
  66
1
  10
0
  20
0
  30
0
  0
VERTEX
  5
237
  8
Layer_1
  10
277.64038
  20
239.34541
  42
-0.1039816
  0
VERTEX
  5
238
  8
Layer_1
  10
281.89624
  20
238.26826
  42
-0.16631679
  0
VERTEX
  5
239
  8
Layer_1
  10
286.13843
  20
233.88448
  42
-0.089511611
  0
VERTEX
  5
23a
  8
Layer_1
  10
287.32715
  20
229.47163
  42
-0.024242727
  0
VERTEX
  5
23b
  8
Layer_1
  10
287.40649
  20
227.77998
  0
VERTEX
  5
23c
  8
Layer_1
  10
287.40649
  20
225.23653
  0
VERTEX
  5
23d
  8
Layer_1
  10
269.83374
  20
225.23653
  42
0.087892978
  0
VERTEX
  5
23e
  8
Layer_1
  10
270.58716
  20
220.99629
  42
0.26275849
  0
VERTEX
  5
23f
  8
Layer_1
  10
275.79736
  20
216.55635
  42
0.066597809
  0
VERTEX
  5
240
  8
Layer_1
  10
279.21069
  20
216.36275
  42
0.074557395
  0
VERTEX
  5
241
  8
Layer_1
  10
284.27954
  20
217.34785
  42
0.019580293
  0
VERTEX
  5
242
  8
Layer_1
  10
286.26196
  20
218.10713
  0
VERTEX
  5
243
  8
Layer_1
  10
286.26196
  20
214.41914
  42
-0.067225645
  0
VERTEX
  5
244
  8
Layer_1
  10
281.37695
  20
212.97261
  42
-0.056576737
  0
VERTEX
  5
245
  8
Layer_1
  10
276.06519
  20
212.83614
  42
-0.095798274
  0
VERTEX
  5
246
  8
Layer_1
  10
271.39355
  20
214.22823
  42
-0.13489869
  0
VERTEX
  5
247
  8
Layer_1
  10
267.44458
  20
217.9438
  42
-0.1090159
  0
VERTEX
  5
248
  8
Layer_1
  10
265.63184
  20
223.32881
  42
-0.088268967
  0
VERTEX
  5
249
  8
Layer_1
  10
266.03223
  20
230.66206
  42
-0.096806248
  0
VERTEX
  5
24a
  8
Layer_1
  10
268.11523
  20
235.15791
  42
-0.20885956
  0
VERTEX
  5
24b
  8
Layer_1
  10
275.17944
  20
239.26607
  42
-0.044922483
  0
VERTEX
  5
24c
  8
Layer_1
  10
277.64038
  20
239.34541
  0
SEQEND
  0
POLYLINE
  5
24e
  8
Layer_1
  62
1
  66
1
  10
0
  20
0
  30
0
  0
VERTEX
  5
24e
  8
Layer_1
  10
227.38133
  20
239.30757
  0
VERTEX
  5
24f
  8
Layer_1
  10
227.93993
  20
239.2834
  42
-0.081486166
  0
VERTEX
  5
250
  8
Layer_1
  10
231.71922
  20
238.51192
  42
-0.23012105
  0
VERTEX
  5
251
  8
Layer_1
  10
235.43578
  20
234.58955
  42
-0.082072912
  0
VERTEX
  5
252
  8
Layer_1
  10
235.99779
  20
230.69746
  0
VERTEX
  5
253
  8
Layer_1
  10
235.99779
  20
213.22212
  0
VERTEX
  5
254
  8
Layer_1
  10
232.93797
  20
213.22212
  0
VERTEX
  5
255
  8
Layer_1
  10
232.12254
  20
216.85786
  0
VERTEX
  5
256
  8
Layer_1
  10
231.92821
  20
216.85786
  0
VERTEX
  5
257
  8
Layer_1
  10
231.50658
  20
216.34956
  42
-0.090655683
  0
VERTEX
  5
258
  8
Layer_1
  10
228.40843
  20
213.74947
  42
-0.088673022
  0
VERTEX
  5
259
  8
Layer_1
  10
225.55247
  20
212.88496
  42
-0.067954975
  0
VERTEX
  5
25a
  8
Layer_1
  10
221.63792
  20
212.8586
  42
-0.14941615
  0
VERTEX
  5
25b
  8
Layer_1
  10
217.23778
  20
214.82613
  42
-0.15743515
  0
VERTEX
  5
25c
  8
Layer_1
  10
215.44041
  20
218.10762
  42
-0.1170838
  0
VERTEX
  5
25d
  8
Layer_1
  10
215.51073
  20
222.58223
  42
-0.17778515
  0
VERTEX
  5
25e
  8
Layer_1
  10
218.23436
  20
226.27266
  42
-0.081288268
  0
VERTEX
  5
25f
  8
Layer_1
  10
221.49779
  20
227.73262
  42
-0.055621125
  0
VERTEX
  5
260
  8
Layer_1
  10
226.75096
  20
228.51216
  42
-0.0036315309
  0
VERTEX
  5
261
  8
Layer_1
  10
231.88329
  20
228.68526
  0
VERTEX
  5
262
  8
Layer_1
  10
231.88329
  20
230.2187
  42
0.088516224
  0
VERTEX
  5
263
  8
Layer_1
  10
231.44408
  20
233.20796
  42
0.19177596
  0
VERTEX
  5
264
  8
Layer_1
  10
229.72948
  20
235.21846
  42
0.1100688
  0
VERTEX
  5
265
  8
Layer_1
  10
227.18211
  20
235.89961
  42
0.09306042
  0
VERTEX
  5
266
  8
Layer_1
  10
222.73412
  20
235.32076
  42
0.03401633
  0
VERTEX
  5
267
  8
Layer_1
  10
219.33788
  20
233.95161
  0
VERTEX
  5
268
  8
Layer_1
  10
218.04369
  20
237.11617
  42
-0.12022834
  0
VERTEX
  5
269
  8
Layer_1
  10
226.8037
  20
239.31563
  0
VERTEX
  5
26a
  8
Layer_1
  10
227.38133
  20
239.30757
  0
SEQEND
  0
POLYLINE
  5
26c
  8
Layer_1
  62
1
  66
1
  10
0
  20
0
  30
0
  0
VERTEX
  5
26c
  8
Layer_1
  10
255.49901
  20
239.34248
  0
VERTEX
  5
26d
  8
Layer_1
  10
256.45239
  20
239.26607
  42
-0.065769034
  0
VERTEX
  5
26e
  8
Layer_1
  10
260.65796
  20
238.25386
  42
-0.019949063
  0
VERTEX
  5
26f
  8
Layer_1
  10
261.27563
  20
237.97652
  0
VERTEX
  5
270
  8
Layer_1
  10
259.98145
  20
234.48286
  0
VERTEX
  5
271
  8
Layer_1
  10
259.38501
  20
234.69356
  42
0.044115686
  0
VERTEX
  5
272
  8
Layer_1
  10
255.81834
  20
235.58345
  42
0.10383243
  0
VERTEX
  5
273
  8
Layer_1
  10
251.85789
  20
235.33809
  42
0.22386712
  0
VERTEX
  5
274
  8
Layer_1
  10
247.92455
  20
231.88374
  42
0.087917648
  0
VERTEX
  5
275
  8
Layer_1
  10
246.9265
  20
227.69868
  42
0.070759903
  0
VERTEX
  5
276
  8
Layer_1
  10
247.21288
  20
222.31392
  42
0.10797648
  0
VERTEX
  5
277
  8
Layer_1
  10
248.70409
  20
218.84785
  42
0.192742
  0
VERTEX
  5
278
  8
Layer_1
  10
252.48216
  20
216.5334
  42
0.072806248
  0
VERTEX
  5
279
  8
Layer_1
  10
256.16895
  20
216.4875
  42
0.060637132
  0
VERTEX
  5
27a
  8
Layer_1
  10
259.43628
  20
217.29366
  42
0.022627812
  0
VERTEX
  5
27b
  8
Layer_1
  10
260.8418
  20
217.86787
  0
VERTEX
  5
27c
  8
Layer_1
  10
260.8418
  20
214.13472
  42
-0.1115355
  0
VERTEX
  5
27d
  8
Layer_1
  10
255.29881
  20
212.76582
  42
-0.068293331
  0
VERTEX
  5
27e
  8
Layer_1
  10
251.02415
  20
213.09029
  42
-0.10267966
  0
VERTEX
  5
27f
  8
Layer_1
  10
246.92259
  20
214.92085
  42
-0.096861837
  0
VERTEX
  5
280
  8
Layer_1
  10
244.40843
  20
217.73384
  42
-0.10187954
  0
VERTEX
  5
281
  8
Layer_1
  10
242.718
  20
222.72725
  42
-0.087596973
  0
VERTEX
  5
282
  8
Layer_1
  10
243.0056
  20
230.6833
  42
-0.13744689
  0
VERTEX
  5
283
  8
Layer_1
  10
245.94554
  20
236.19136
  42
-0.098564557
  0
VERTEX
  5
284
  8
Layer_1
  10
249.0598
  20
238.30244
  42
-0.090348514
  0
VERTEX
  5
285
  8
Layer_1
  10
253.67723
  20
239.34615
  42
-0.025846663
  0
VERTEX
  5
286
  8
Layer_1
  10
255.49901
  20
239.34248
  0
SEQEND
  0
POLYLINE
  5
288
  8
Layer_1
  62
1
  66
1
  10
0
  20
0
  30
0
  0
VERTEX
  5
288
  8
Layer_1
  10
228.05296
  20
225.62544
  0
VERTEX
  5
289
  8
Layer_1
  10
227.46605
  20
225.59663
  42
0.059555985
  0
VERTEX
  5
28a
  8
Layer_1
  10
223.21825
  20
224.93526
  42
0.1155064
  0
VERTEX
  5
28b
  8
Layer_1
  10
220.989
  20
223.73994
  42
0.20427849
  0
VERTEX
  5
28c
  8
Layer_1
  10
219.58446
  20
220.60811
  42
0.1104677
  0
VERTEX
  5
28d
  8
Layer_1
  10
219.90648
  20
218.43916
  42
0.16324166
  0
VERTEX
  5
28e
  8
Layer_1
  10
221.2346
  20
216.91011
  42
0.1253209
  0
VERTEX
  5
28f
  8
Layer_1
  10
223.76488
  20
216.15547
  42
0.12803984
  0
VERTEX
  5
290
  8
Layer_1
  10
228.2224
  20
216.98824
  42
0.14102121
  0
VERTEX
  5
291
  8
Layer_1
  10
230.81248
  20
219.24727
  42
0.1189953
  0
VERTEX
  5
292
  8
Layer_1
  10
231.79735
  20
222.56636
  42
0.019230966
  0
VERTEX
  5
293
  8
Layer_1
  10
231.8308
  20
223.4709
  0
VERTEX
  5
294
  8
Layer_1
  10
231.8308
  20
225.76753
  0
VERTEX
  5
295
  8
Layer_1
  10
228.05296
  20
225.62544
  0
SEQEND
  0
POLYLINE
  5
297
  8
Layer_1
  62
1
  66
1
  10
0
  20
0
  30
0
  0
VERTEX
  5
297
  8
Layer_1
  10
198.61278
  20
235.81343
  0
VERTEX
  5
298
  8
Layer_1
  10
198.14891
  20
235.78755
  42
0.10822723
  0
VERTEX
  5
299
  8
Layer_1
  10
195.09251
  20
234.96138
  42
0.1575886
  0
VERTEX
  5
29a
  8
Layer_1
  10
193.01366
  20
232.71211
  42
0.084798359
  0
VERTEX
  5
29b
  8
Layer_1
  10
192.0034
  20
229.02437
  42
0.066835656
  0
VERTEX
  5
29c
  8
Layer_1
  10
192.15843
  20
222.37154
  42
0.092600366
  0
VERTEX
  5
29d
  8
Layer_1
  10
193.41649
  20
218.79927
  42
0.1738489
  0
VERTEX
  5
29e
  8
Layer_1
  10
196.00975
  20
216.72749
  42
0.13161908
  0
VERTEX
  5
29f
  8
Layer_1
  10
200.83055
  20
216.4189
  42
0.1639302
  0
VERTEX
  5
2a0
  8
Layer_1
  10
203.74681
  20
218.23653
  42
0.10982789
  0
VERTEX
  5
2a1
  8
Layer_1
  10
205.46678
  20
221.61739
  42
0.085439863
  0
VERTEX
  5
2a2
  8
Layer_1
  10
205.97704
  20
227.73921
  42
0.089530122
  0
VERTEX
  5
2a3
  8
Layer_1
  10
204.91331
  20
232.13887
  42
0.11768393
  0
VERTEX
  5
2a4
  8
Layer_1
  10
203.09178
  20
234.57735
  42
0.14583129
  0
VERTEX
  5
2a5
  8
Layer_1
  10
199.95042
  20
235.78072
  42
0.033433803
  0
VERTEX
  5
2a6
  8
Layer_1
  10
198.61278
  20
235.81343
  0
SEQEND
  0
POLYLINE
  5
2a8
  8
Layer_1
  62
1
  70
1
  66
1
  10
0
  20
0
  30
0
  0
VERTEX
  5
2a8
  8
Layer_1
  10
276.41089
  20
235.91158
  0
VERTEX
  5
2a9
  8
Layer_1
  10
276.04785
  20
235.88887
  42
0.18162078
  0
VERTEX
  5
2aa
  8
Layer_1
  10
272.23779
  20
234.21309
  42
0.13387338
  0
VERTEX
  5
2ab
  8
Layer_1
  10
270.2793
  20
230.59956
  42
0.039307858
  0
VERTEX
  5
2ac
  8
Layer_1
  10
269.93115
  20
228.59541
  0
VERTEX
  5
2ad
  8
Layer_1
  10
283.00781
  20
228.59541
  42
0.066744197
  0
VERTEX
  5
2ae
  8
Layer_1
  10
282.59717
  20
231.54463
  42
0.10211774
  0
VERTEX
  5
2af
  8
Layer_1
  10
281.27808
  20
234.13081
  42
0.17905771
  0
VERTEX
  5
2b0
  8
Layer_1
  10
278.2771
  20
235.79195
  42
0.05425953
  0
SEQEND
  0
ENDSEC
  0
EOF
